# AST/ASF file generated using VICON BodyLanguage
# -----------------------------------------------
:version 1.10
:name VICON
:units
  mass 1.0
  length 0.45
  angle deg
:documentation
   .ast/.asf automatically generated from VICON data using
   VICON BodyBuilder and BodyLanguage model FoxedUp or BRILLIANT.MOD
:root
   order TX TY TZ RX RY RZ
   axis XYZ
   position 0 0 0  
   orientation 0 0 0 
:bonedata
  begin
     id 1 
     name lhipjoint
     direction 0.541323 -0.757556 0.364798 
     length 2.47576 
     axis 0 0 0  XYZ
  end
  begin
     id 2 
     name lfemur
     direction 0.34202 -0.939693 0  
     length 7.46493  
     axis 0 0 20  XYZ
    dof rx ry rz
    limits (-160.0 20.0)
           (-70.0 70.0)
           (-60.0 70.0)
  end
  begin
     id 3 
     name ltibia
     direction 0.34202 -0.939693 0   
     length 7.73805   
     axis 0 0 20   XYZ
    dof rx
    limits (-10.0 170.0)
  end
  begin
     id 4 
     name lfoot
     direction 0.107174 -0.294458 0.949636   
     length 2.25864   
     axis -90 7.62852e-016 20   XYZ
    dof rx rz
    limits (-45.0 90.0)
           (-70.0 20.0)
  end
  begin
     id 5 
     name ltoes
     direction 1.53606e-011 -4.21934e-011 1   
     length 1.12451   
     axis -90 7.62852e-016 20   XYZ
    dof rx
    limits (-90.0 20.0)
  end
  begin
     id 6 
     name rhipjoint
     direction -0.524745 -0.766967 0.36933   
     length 2.44538  
     axis 0 0 0  XYZ 
  end
  begin
     id 7 
     name rfemur
     direction -0.34202 -0.939693 0   
     length 7.61604   
     axis 0 0 -20   XYZ
    dof rx ry rz
    limits (-160.0 20.0)
           (-70.0 70.0)
           (-70.0 60.0)
  end
  begin
     id 8 
     name rtibia
     direction -0.34202 -0.939693 0   
     length 7.61056   
     axis 0 0 -20   XYZ
    dof rx
    limits (-10.0 170.0)
 end
 begin
     id 9 
     name rfoot
     direction -0.12616 -0.346623 0.929482   
     length 2.46372  
     axis -90 -7.62852e-016 -20   XYZ
    dof rx rz
    limits (-45.0 90.0)
           (-20.0 70.0)
  end
  begin
     id 10 
     name rtoes
     direction -1.53531e-011 -4.22004e-011 1   
     length 1.21611   
     axis -90 -7.62852e-016 -20   XYZ
    dof rx
    limits (-90.0 20.0)
  end
  begin
     id 11 
     name lowerback
     direction -0.000778023 0.997293 -0.0735223   
     length 2.06139   
     axis 0 0 0   XYZ
    dof rx ry rz
    limits (-20.0 45.0)
           (-30.0 30.0)
           (-30.0 30.0)
  end
  begin
     id 12 
     name upperback
     direction 0.0222598 0.999722 -0.0078355   
     length 2.06383   
     axis 0 0 0   XYZ
    dof rx ry rz
    limits (-20.0 45.0)
           (-30.0 30.0)
           (-30.0 30.0)
  end
  begin
     id 13 
     name thorax
     direction 0.0219654 0.999405 0.0265994   
     length 2.07163   
     axis 0 0 0   XYZ
    dof rx ry rz
    limits (-20.0 45.0)
           (-30.0 30.0)
           (-30.0 30.0)
  end
  begin
     id 14 
     name lowerneck
     direction 0.0213282 0.988147 0.15202   
     length 1.75969   
     axis 0 0 0   XYZ
    dof rx ry rz
    limits (-20.0 45.0)
           (-30.0 30.0)
           (-30.0 30.0)
  end
  begin
     id 15 
     name upperneck
     direction -0.0546456 0.982624 -0.177379   
     length 1.79244   
     axis 0 0 0   XYZ
    dof rx ry rz
    limits (-20.0 45.0)
           (-30.0 30.0)
           (-30.0 30.0)
  end
  begin
     id 16
     name head
     direction -0.0199987 0.996855 -0.076686  
     length 1.80555  
     axis 0 0 0   XYZ
    dof rx ry rz
    limits (-20.0 45.0)
           (-30.0 30.0)
           (-30.0 30.0)
  end
  begin
     id 17 
     name lclavicle
     direction 0.929565 0.363219 -0.063096  
     length 3.55722  
     axis 0 0 0   XYZ
    dof ry rz
    limits (-20.0 10.0)
           (0.0 20.0)
  end
  begin
     id 18 
     name lhumerus
     direction 1 -4.48993e-011 -2.36203e-027   
     length 4.92785   
     axis 180 -30 -90   XYZ
    dof rx ry rz
    limits (-60.0 90.0)
           (-90.0 90.0)
           (-90.0 90.0)
  end
  begin
     id 19
     name lradius
     direction 1 -4.48947e-011 2.02997e-027   
     length 3.44052   
     axis 180 -30 -90   XYZ
    dof rx
    limits (-10.0 170.0)
  end
  begin
     id 20
     name lwrist
     direction 1 -4.48962e-011 1.45991e-027   
     length 1.72026   
     axis 1.49639e-024 90 90   XYZ
    dof ry
    limits (-180.0 0.0)
 end
  begin
     id 21 
     name lhand
     direction 1 -4.48984e-011 2.91906e-027   
     length 0.654326   
     axis -1.863e-015 90 90   XYZ
    dof rx rz
    limits (-90.0 90.0)
           (-45.0 45.0)
  end
  begin
     id 22 
     name lfingers
     direction 1 -4.48961e-011 5.83968e-027   
     length 0.527534   
     axis -3.72598e-015 90 90   XYZ
    dof rx
    limits (0.0 90.0)
  end
  begin
     id 23
     name lthumb
     direction 0.707107 -6.34963e-011 0.707107   
     length 0.757437   
     axis -90 45 -6.68868e-015   XYZ
    dof rx rz
    limits (-45.0 45.0)
           (-45.0 45.0)
  end
  begin
     id 24 
     name rclavicle
     direction -0.902944 0.422599 -0.0781198   
     length 3.54432  
     axis 0 0 0   XYZ 
    dof ry rz
    limits (-10.0 20.0)
           (-20.0 0.0)
  end
  begin
     id 25 
     name rhumerus
     direction -1 -4.48953e-011 -4.75835e-028  
     length 5.09181   
     axis 180 30 90   XYZ
    dof rx ry rz
    limits (-90.0 60.0)
           (-90.0 90.0)
           (-90.0 90.0)
  end
  begin
     id 26 
     name rradius
     direction -1 -4.48986e-011 -3.25889e-027   
     length 3.49865   
     axis 180 30 90   XYZ
    dof rx
    limits (-10.0 170.0)
  end
  begin
     id 27 
     name rwrist
     direction -1 -4.48963e-011 1.45989e-027   
     length 1.74933   
     axis 1.49639e-024 -90 -90   XYZ
    dof ry
    limits (-180.0 0.0)
  end
  begin
     id 28
     name rhand
     direction -1 -4.49003e-011 2.91844e-027   
     length 0.66641   
     axis -1.863e-015 -90 -90   XYZ
    dof rx rz
    limits (-90.0 90.0)
           (-45.0 45.0)
  end
  begin
     id 29
     name rfingers
     direction -1 -4.48973e-011 5.83886e-027   
     length 0.537277   
     axis -3.72598e-015 -90 -90   XYZ
    dof rx
    limits (0.0 90.0)
  end
  begin
     id 30
     name rthumb
     direction -0.707107 -6.34976e-011 0.707107   
     length 0.771425   
     axis -90 -45 6.68868e-015   XYZ
    dof rx rz
    limits (-45.0 45.0)
           (-45.0 45.0)
  end
:hierarchy
  begin
    root lhipjoint rhipjoint lowerback
    lhipjoint lfemur
    lfemur ltibia
    ltibia lfoot
    lfoot ltoes
    rhipjoint rfemur
    rfemur rtibia
    rtibia rfoot
    rfoot rtoes
    lowerback upperback
    upperback thorax
    thorax lowerneck lclavicle rclavicle
    lowerneck upperneck
    upperneck head
    lclavicle lhumerus
    lhumerus lradius
    lradius lwrist
    lwrist lhand lthumb
    lhand lfingers
    rclavicle rhumerus
    rhumerus rradius
    rradius rwrist
    rwrist rhand rthumb
    rhand rfingers
  end

#!OML:ASF H:\LiuWeirdWalks\Patient Classification 1\Patient 1\Session 1\male.ASF
:FULLY-SPECIFIED
:DEGREES
74
root -0.748578 17.9286 -30.2088 3.34341 8.73328 -1.08693
lowerback 2.99796 -2.89311 -0.0165794
upperback 3.05879 -3.90824 5.2888
thorax 1.85069 -2.02458 5.52839
lowerneck -19.466 1.71662 3.42905
upperneck 38.8903 5.21137 -9.25272
head 18.2566 1.30487 -3.87672
rclavicle -1.17283e-014 6.36111e-015
rhumerus -14.0471 -32.7301 -13.4547
rradius 24.8093
rwrist 2.7659
rhand -22.6625 -0.959988
rfingers 7.12502
rthumb 3.76904 -30.9064
lclavicle -1.17283e-014 6.36111e-015
lhumerus -22.2692 27.1263 26.9037
lradius 26.33
lwrist 0.10407
lhand -19.0543 2.65698
lfingers 7.12502
lthumb 7.25278 32.5127
rfemur -8.09325 -1.46254 17.6442
rtibia 29.3049
rfoot -13.6712 -24.7264
rtoes -4.67435
lfemur -7.83933 -2.6615 -13.4996
ltibia 23.8433
lfoot -10.4703 12.9357
ltoes -11.8165
75
root -0.761738 17.9257 -30.2074 3.36883 8.68774 -0.971503
lowerback 3.03093 -2.89528 -0.0621804
upperback 3.05665 -3.91072 5.27521
thorax 1.83239 -2.0264 5.54184
lowerneck -19.4092 1.72299 3.43764
upperneck 38.8462 5.23841 -9.3113
head 18.2222 1.31028 -3.89719
rclavicle -8.74653e-015 -2.54444e-014
rhumerus -14.0765 -32.6768 -13.4471
rradius 24.8377
rwrist 2.67162
rhand -22.7928 -0.978504
rfingers 7.12502
rthumb 3.64318 -30.9271
lclavicle -8.74653e-015 -2.54444e-014
lhumerus -22.2413 27.1245 26.9182
lradius 26.3234
lwrist 0.0710147
lhand -18.9668 2.64232
lfingers 7.12502
lthumb 7.33723 32.4951
rfemur -8.20889 -1.55832 17.5448
rtibia 29.498
rfoot -13.7925 -24.6167
rtoes -4.63675
lfemur -7.80892 -2.60779 -13.5788
ltibia 23.7901
lfoot -10.4638 12.9102
ltoes -11.846
76
root -0.775785 17.9225 -30.2058 3.38488 8.63743 -0.87222
lowerback 3.07927 -2.8457 -0.0995992
upperback 3.0928 -3.84484 5.24764
thorax 1.83672 -1.99421 5.53542
lowerneck -19.4975 1.61201 3.25013
upperneck 38.9178 5.08389 -9.16265
head 18.256 1.23814 -3.82868
rclavicle 7.15625e-015 -3.18055e-015
rhumerus -14.2542 -32.7918 -13.3519
rradius 24.8643
rwrist 2.66645
rhand -22.9224 -0.995791
rfingers 7.12502
rthumb 3.51802 -30.9465
lclavicle 7.15625e-015 -3.18055e-015
lhumerus -22.0018 27.1256 27.0476
lradius 26.3022
lwrist 0.0321769
lhand -18.8873 2.61155
lfingers 7.12502
lthumb 7.41396 32.4616
rfemur -8.32009 -1.64995 17.4668
rtibia 29.6933
rfoot -13.9095 -24.509
rtoes -4.59725
lfemur -7.77207 -2.55954 -13.6358
ltibia 23.7394
lfoot -10.4583 12.8877
ltoes -11.8714
77
root -0.791014 17.9192 -30.2044 3.39083 8.59183 -0.792613
lowerback 3.14379 -2.7959 -0.110447
upperback 3.12145 -3.77724 5.21534
thorax 1.82189 -1.96014 5.50996
lowerneck -19.5909 1.52818 3.15334
upperneck 38.9798 4.95178 -9.05564
head 18.2937 1.18327 -3.79186
rclavicle 9.93923e-015 -2.8625e-014
rhumerus -14.4579 -32.8677 -13.2656
rradius 24.902
rwrist 2.63212
rhand -23.0641 -1.02414
rfingers 7.12502
rthumb 3.38123 -30.9771
lclavicle 9.93923e-015 -2.8625e-014
lhumerus -21.7558 27.109 27.165
lradius 26.2805
lwrist -0.0347198
lhand -18.8187 2.58579
lfingers 7.12502
lthumb 7.48019 32.4335
rfemur -8.42222 -1.72791 17.418
rtibia 29.8847
rfoot -14.0253 -24.4182
rtoes -4.55589
lfemur -7.73526 -2.52119 -13.6653
ltibia 23.6983
lfoot -10.4525 12.8662
ltoes -11.8988
78
root -0.807487 17.9158 -30.2029 3.38696 8.54574 -0.740957
lowerback 3.20113 -2.74561 -0.0940509
upperback 3.15995 -3.70907 5.1835
thorax 1.81951 -1.92546 5.46881
lowerneck -19.6696 1.44801 3.08545
upperneck 38.9902 4.81401 -8.96066
head 18.2983 1.12937 -3.76348
rclavicle -3.37934e-014 4.13472e-014
rhumerus -14.6589 -33.0336 -13.1954
rradius 24.9226
rwrist 2.70789
rhand -23.1768 -1.01549
rfingers 7.12502
rthumb 3.27233 -30.9701
lclavicle -3.37934e-014 4.13472e-014
lhumerus -21.4861 27.1038 27.2826
lradius 26.2556
lwrist -0.103988
lhand -18.7869 2.57343
lfingers 7.12502
lthumb 7.51082 32.4201
rfemur -8.51599 -1.78307 17.4085
rtibia 30.068
rfoot -14.1365 -24.348
rtoes -4.50895
lfemur -7.7032 -2.49367 -13.6583
ltibia 23.6734
lfoot -10.4488 12.8535
ltoes -11.9278
79
root -0.82518 17.9121 -30.2015 3.37323 8.49474 -0.714139
lowerback 3.26494 -2.73437 -0.0781526
upperback 3.18714 -3.693 5.19524
thorax 1.81023 -1.91747 5.47479
lowerneck -19.683 1.45788 3.09409
upperneck 38.9332 4.82823 -8.9793
head 18.2713 1.13365 -3.76719
rclavicle 7.99114e-014 -3.33958e-014
rhumerus -14.6869 -33.1258 -13.2116
rradius 24.9361
rwrist 2.76638
rhand -23.2851 -1.01608
rfingers 7.12502
rthumb 3.16775 -30.9723
lclavicle 7.99114e-014 -3.33958e-014
lhumerus -21.3957 27.1145 27.3436
lradius 26.2619
lwrist -0.145358
lhand -18.8002 2.57123
lfingers 7.12502
lthumb 7.498 32.4183
rfemur -8.60062 -1.8116 17.4338
rtibia 30.2442
rfoot -14.2491 -24.292
rtoes -4.4517
lfemur -7.67563 -2.46853 -13.6193
ltibia 23.6691
lfoot -10.4476 12.8512
ltoes -11.9646
80
root -0.844068 17.9082 -30.2 3.35942 8.43285 -0.707365
lowerback 3.33094 -2.74052 -0.0439448
upperback 3.18688 -3.69861 5.21577
thorax 1.77284 -1.91941 5.48062
lowerneck -19.5975 1.51051 3.19359
upperneck 38.8139 4.91039 -9.10094
head 18.197 1.16691 -3.81767
rclavicle 2.06736e-014 -2.8625e-014
rhumerus -14.6679 -33.113 -13.2774
rradius 24.9626
rwrist 2.77667
rhand -23.3705 -1.00255
rfingers 7.12502
rthumb 3.08532 -30.96
lclavicle 2.06736e-014 -2.8625e-014
lhumerus -21.4029 27.0973 27.3474
lradius 26.2845
lwrist -0.144987
lhand -18.8464 2.57855
lfingers 7.12502
lthumb 7.45345 32.4272
rfemur -8.68704 -1.81335 17.4877
rtibia 30.4137
rfoot -14.3656 -24.2484
rtoes -4.38169
lfemur -7.66246 -2.42776 -13.5531
ltibia 23.6859
lfoot -10.4559 12.8479
ltoes -11.998
81
root -0.863436 17.904 -30.1978 3.34621 8.36294 -0.706989
lowerback 3.37189 -2.75358 0.0100977
upperback 3.18667 -3.71377 5.23716
thorax 1.74919 -1.92589 5.47489
lowerneck -19.4736 1.59788 3.37092
upperneck 38.6551 5.04407 -9.29894
head 18.1025 1.22323 -3.9053
rclavicle 1.78906e-014 -2.54444e-014
rhumerus -14.6288 -33.0418 -13.3667
rradius 24.9989
rwrist 2.75313
rhand -23.4301 -0.985865
rfingers 7.12502
rthumb 3.02772 -30.9441
lclavicle 1.78906e-014 -2.54444e-014
lhumerus -21.4456 27.0891 27.3304
lradius 26.3129
lwrist -0.132841
lhand -18.9276 2.59851
lfingers 7.12502
lthumb 7.37505 32.45
rfemur -8.77144 -1.80803 17.5501
rtibia 30.5785
rfoot -14.4753 -24.2024
rtoes -4.3288
lfemur -7.65595 -2.37857 -13.4791
ltibia 23.7211
lfoot -10.4716 12.851
ltoes -12.0377
82
root -0.883713 17.8997 -30.1954 3.33379 8.29435 -0.704922
lowerback 3.41918 -2.77274 0.0596325
upperback 3.17414 -3.73641 5.26336
thorax 1.71061 -1.936 5.47754
lowerneck -19.3435 1.6844 3.51265
upperneck 38.5582 5.18667 -9.47351
head 18.0422 1.28114 -3.97765
rclavicle 7.55382e-015 7.95139e-015
rhumerus -14.5795 -32.8784 -13.4745
rradius 25.0528
rwrist 2.65615
rhand -23.4751 -0.96033
rfingers 7.12502
rthumb 2.98426 -30.9192
lclavicle 7.55382e-015 7.95139e-015
lhumerus -21.5362 27.0545 27.299
lradius 26.3657
lwrist -0.061021
lhand -19.0181 2.63156
lfingers 7.12502
lthumb 7.28764 32.4861
rfemur -8.85324 -1.80404 17.6137
rtibia 30.7393
rfoot -14.5796 -24.1527
rtoes -4.29503
lfemur -7.65723 -2.31823 -13.4032
ltibia 23.768
lfoot -10.4888 12.8467
ltoes -12.0775
83
root -0.904268 17.8953 -30.1927 3.32209 8.22893 -0.68788
lowerback 3.46253 -2.79958 0.10416
upperback 3.15028 -3.76893 5.28407
thorax 1.66335 -1.95086 5.47749
lowerneck -19.2249 1.77586 3.65814
upperneck 38.5501 5.34559 -9.65223
head 18.0397 1.34542 -4.05625
rclavicle -5.60573e-014 2.38542e-014
rhumerus -14.5322 -32.617 -13.5961
rradius 25.1202
rwrist 2.52108
rhand -23.5142 -0.936481
rfingers 7.12502
rthumb 2.94654 -30.8959
lclavicle -5.60573e-014 2.38542e-014
lhumerus -21.6801 26.9724 27.2438
lradius 26.4455
lwrist 0.0656862
lhand -19.1024 2.66108
lfingers 7.12502
lthumb 7.20631 32.5184
rfemur -8.93086 -1.81362 17.6587
rtibia 30.8984
rfoot -14.6772 -24.0908
rtoes -4.29261
lfemur -7.65531 -2.26023 -13.3449
ltibia 23.8158
lfoot -10.5039 12.846
ltoes -12.125
